<mxfile host="app.diagrams.net" modified="2021-12-16T16:42:04.512Z" agent="5.0 (Windows NT 10.0; Win64; x64) AppleWebKit/537.36 (KHTML, like Gecko) Chrome/96.0.4664.110 Safari/537.36" etag="MmUh01f03k0suD4QT_Li" version="15.9.1" type="github">
  <diagram id="JklWbVy-Onh1FUwAnJy-" name="Page-1">
    <mxGraphModel dx="1550" dy="2058" grid="1" gridSize="10" guides="1" tooltips="1" connect="1" arrows="1" fold="1" page="1" pageScale="1" pageWidth="827" pageHeight="1169" math="0" shadow="0">
      <root>
        <mxCell id="0" />
        <mxCell id="1" parent="0" />
        <mxCell id="emysILsUEipTc8zqBl5s-18" style="edgeStyle=orthogonalEdgeStyle;rounded=0;orthogonalLoop=1;jettySize=auto;html=1;exitX=0.5;exitY=0.5;exitDx=0;exitDy=0;exitPerimeter=0;entryX=0;entryY=0.5;entryDx=0;entryDy=0;endArrow=none;endFill=0;fillColor=#e1d5e7;strokeColor=#9673a6;" edge="1" parent="1" source="V_W_gdtTsNlJ6WVqg025-1" target="V_W_gdtTsNlJ6WVqg025-7">
          <mxGeometry relative="1" as="geometry">
            <Array as="points">
              <mxPoint x="285" y="140" />
              <mxPoint x="285" y="-10" />
              <mxPoint x="370" y="-10" />
            </Array>
          </mxGeometry>
        </mxCell>
        <mxCell id="emysILsUEipTc8zqBl5s-32" style="edgeStyle=orthogonalEdgeStyle;rounded=0;orthogonalLoop=1;jettySize=auto;html=1;exitX=0.5;exitY=0.5;exitDx=0;exitDy=0;exitPerimeter=0;endArrow=none;endFill=0;fillColor=#e1d5e7;strokeColor=#9673a6;" edge="1" parent="1" source="V_W_gdtTsNlJ6WVqg025-1" target="V_W_gdtTsNlJ6WVqg025-11">
          <mxGeometry relative="1" as="geometry">
            <Array as="points">
              <mxPoint x="185" y="180" />
            </Array>
          </mxGeometry>
        </mxCell>
        <mxCell id="emysILsUEipTc8zqBl5s-36" style="edgeStyle=orthogonalEdgeStyle;rounded=0;orthogonalLoop=1;jettySize=auto;html=1;exitX=0.5;exitY=0.5;exitDx=0;exitDy=0;exitPerimeter=0;entryX=0;entryY=0.612;entryDx=0;entryDy=0;entryPerimeter=0;endArrow=none;endFill=0;fillColor=#e1d5e7;strokeColor=#9673a6;" edge="1" parent="1" source="V_W_gdtTsNlJ6WVqg025-1" target="V_W_gdtTsNlJ6WVqg025-30">
          <mxGeometry relative="1" as="geometry">
            <Array as="points">
              <mxPoint x="185" y="270" />
              <mxPoint x="354" y="270" />
            </Array>
          </mxGeometry>
        </mxCell>
        <mxCell id="emysILsUEipTc8zqBl5s-41" style="edgeStyle=orthogonalEdgeStyle;rounded=0;orthogonalLoop=1;jettySize=auto;html=1;exitX=0.5;exitY=0.5;exitDx=0;exitDy=0;exitPerimeter=0;endArrow=none;endFill=0;fillColor=#e1d5e7;strokeColor=#9673a6;" edge="1" parent="1" source="V_W_gdtTsNlJ6WVqg025-1" target="V_W_gdtTsNlJ6WVqg025-20">
          <mxGeometry relative="1" as="geometry">
            <Array as="points">
              <mxPoint x="185" y="360" />
            </Array>
          </mxGeometry>
        </mxCell>
        <mxCell id="emysILsUEipTc8zqBl5s-44" style="edgeStyle=orthogonalEdgeStyle;rounded=0;orthogonalLoop=1;jettySize=auto;html=1;exitX=0.5;exitY=0.5;exitDx=0;exitDy=0;exitPerimeter=0;fontSize=14;endArrow=none;endFill=0;strokeWidth=1;fillColor=#e1d5e7;strokeColor=#9673a6;" edge="1" parent="1" source="V_W_gdtTsNlJ6WVqg025-1" target="V_W_gdtTsNlJ6WVqg025-21">
          <mxGeometry relative="1" as="geometry">
            <Array as="points">
              <mxPoint x="185" y="450" />
            </Array>
          </mxGeometry>
        </mxCell>
        <mxCell id="emysILsUEipTc8zqBl5s-48" style="edgeStyle=orthogonalEdgeStyle;rounded=0;orthogonalLoop=1;jettySize=auto;html=1;exitX=0.5;exitY=0.5;exitDx=0;exitDy=0;exitPerimeter=0;entryX=0;entryY=0.5;entryDx=0;entryDy=0;fontSize=14;endArrow=none;endFill=0;strokeWidth=1;fillColor=#e1d5e7;strokeColor=#9673a6;" edge="1" parent="1" source="V_W_gdtTsNlJ6WVqg025-1" target="V_W_gdtTsNlJ6WVqg025-26">
          <mxGeometry relative="1" as="geometry">
            <Array as="points">
              <mxPoint x="185" y="560" />
              <mxPoint x="360" y="560" />
              <mxPoint x="360" y="570" />
            </Array>
          </mxGeometry>
        </mxCell>
        <mxCell id="emysILsUEipTc8zqBl5s-52" style="edgeStyle=orthogonalEdgeStyle;rounded=0;orthogonalLoop=1;jettySize=auto;html=1;exitX=0.5;exitY=0.5;exitDx=0;exitDy=0;exitPerimeter=0;entryX=0;entryY=0.5;entryDx=0;entryDy=0;fontSize=14;endArrow=none;endFill=0;strokeWidth=1;fillColor=#e1d5e7;strokeColor=#9673a6;" edge="1" parent="1" source="V_W_gdtTsNlJ6WVqg025-1" target="V_W_gdtTsNlJ6WVqg025-27">
          <mxGeometry relative="1" as="geometry">
            <Array as="points">
              <mxPoint x="185" y="670" />
              <mxPoint x="360" y="670" />
            </Array>
          </mxGeometry>
        </mxCell>
        <mxCell id="V_W_gdtTsNlJ6WVqg025-1" value="Клиент" style="shape=umlActor;verticalLabelPosition=bottom;verticalAlign=top;html=1;outlineConnect=0;fillColor=#e1d5e7;strokeColor=#9673a6;fontSize=14;" parent="1" vertex="1">
          <mxGeometry x="170" y="110" width="30" height="60" as="geometry" />
        </mxCell>
        <mxCell id="emysILsUEipTc8zqBl5s-8" style="edgeStyle=orthogonalEdgeStyle;rounded=0;orthogonalLoop=1;jettySize=auto;html=1;exitX=0.5;exitY=0.5;exitDx=0;exitDy=0;exitPerimeter=0;entryX=0;entryY=0;entryDx=0;entryDy=0;endArrow=none;endFill=0;fillColor=#ffe6cc;strokeColor=#d79b00;" edge="1" parent="1" source="V_W_gdtTsNlJ6WVqg025-4" target="V_W_gdtTsNlJ6WVqg025-7">
          <mxGeometry relative="1" as="geometry">
            <Array as="points">
              <mxPoint x="85" y="-20" />
              <mxPoint x="388" y="-20" />
            </Array>
          </mxGeometry>
        </mxCell>
        <mxCell id="emysILsUEipTc8zqBl5s-15" style="edgeStyle=orthogonalEdgeStyle;rounded=0;orthogonalLoop=1;jettySize=auto;html=1;exitX=0.5;exitY=0.5;exitDx=0;exitDy=0;exitPerimeter=0;endArrow=none;endFill=0;fillColor=#ffe6cc;strokeColor=#d79b00;" edge="1" parent="1" source="V_W_gdtTsNlJ6WVqg025-4" target="V_W_gdtTsNlJ6WVqg025-27">
          <mxGeometry relative="1" as="geometry">
            <Array as="points">
              <mxPoint x="85" y="690" />
            </Array>
          </mxGeometry>
        </mxCell>
        <mxCell id="emysILsUEipTc8zqBl5s-27" style="edgeStyle=orthogonalEdgeStyle;rounded=0;orthogonalLoop=1;jettySize=auto;html=1;exitX=0.5;exitY=0.5;exitDx=0;exitDy=0;exitPerimeter=0;entryX=0;entryY=0.5;entryDx=0;entryDy=0;endArrow=none;endFill=0;fillColor=#ffe6cc;strokeColor=#d79b00;" edge="1" parent="1" source="V_W_gdtTsNlJ6WVqg025-4" target="V_W_gdtTsNlJ6WVqg025-37">
          <mxGeometry relative="1" as="geometry" />
        </mxCell>
        <mxCell id="emysILsUEipTc8zqBl5s-47" style="edgeStyle=orthogonalEdgeStyle;rounded=0;orthogonalLoop=1;jettySize=auto;html=1;exitX=0.5;exitY=0.5;exitDx=0;exitDy=0;exitPerimeter=0;entryX=0;entryY=0.696;entryDx=0;entryDy=0;entryPerimeter=0;fontSize=14;endArrow=none;endFill=0;strokeWidth=1;fillColor=#ffe6cc;strokeColor=#d79b00;" edge="1" parent="1" source="V_W_gdtTsNlJ6WVqg025-4" target="V_W_gdtTsNlJ6WVqg025-21">
          <mxGeometry relative="1" as="geometry">
            <Array as="points">
              <mxPoint x="120" y="80" />
              <mxPoint x="120" y="466" />
            </Array>
          </mxGeometry>
        </mxCell>
        <mxCell id="emysILsUEipTc8zqBl5s-50" style="edgeStyle=orthogonalEdgeStyle;rounded=0;orthogonalLoop=1;jettySize=auto;html=1;exitX=0.5;exitY=0.5;exitDx=0;exitDy=0;exitPerimeter=0;entryX=0;entryY=0.5;entryDx=0;entryDy=0;fontSize=14;endArrow=none;endFill=0;strokeWidth=1;fillColor=#ffe6cc;strokeColor=#d79b00;" edge="1" parent="1" source="V_W_gdtTsNlJ6WVqg025-4" target="V_W_gdtTsNlJ6WVqg025-26">
          <mxGeometry relative="1" as="geometry">
            <Array as="points">
              <mxPoint x="100" y="80" />
              <mxPoint x="100" y="580" />
              <mxPoint x="354" y="580" />
            </Array>
          </mxGeometry>
        </mxCell>
        <mxCell id="V_W_gdtTsNlJ6WVqg025-4" value="Магазин" style="shape=umlActor;verticalLabelPosition=bottom;verticalAlign=top;html=1;outlineConnect=0;fillColor=#fff2cc;strokeColor=#d6b656;fontSize=14;" parent="1" vertex="1">
          <mxGeometry x="70" y="50" width="30" height="60" as="geometry" />
        </mxCell>
        <mxCell id="emysILsUEipTc8zqBl5s-19" style="edgeStyle=orthogonalEdgeStyle;rounded=0;orthogonalLoop=1;jettySize=auto;html=1;exitX=0.5;exitY=0.5;exitDx=0;exitDy=0;exitPerimeter=0;entryX=1;entryY=0.5;entryDx=0;entryDy=0;endArrow=none;endFill=0;fillColor=#f8cecc;strokeColor=#b85450;" edge="1" parent="1" source="V_W_gdtTsNlJ6WVqg025-5" target="V_W_gdtTsNlJ6WVqg025-7">
          <mxGeometry relative="1" as="geometry">
            <Array as="points">
              <mxPoint x="755" y="-20" />
            </Array>
          </mxGeometry>
        </mxCell>
        <mxCell id="emysILsUEipTc8zqBl5s-29" style="edgeStyle=orthogonalEdgeStyle;rounded=0;orthogonalLoop=1;jettySize=auto;html=1;exitX=0.5;exitY=0.5;exitDx=0;exitDy=0;exitPerimeter=0;endArrow=none;endFill=0;fillColor=#f8cecc;strokeColor=#b85450;" edge="1" parent="1" source="V_W_gdtTsNlJ6WVqg025-5" target="V_W_gdtTsNlJ6WVqg025-37">
          <mxGeometry relative="1" as="geometry">
            <Array as="points">
              <mxPoint x="755" y="100" />
            </Array>
          </mxGeometry>
        </mxCell>
        <mxCell id="emysILsUEipTc8zqBl5s-35" style="edgeStyle=orthogonalEdgeStyle;rounded=0;orthogonalLoop=1;jettySize=auto;html=1;exitX=0.5;exitY=0.5;exitDx=0;exitDy=0;exitPerimeter=0;entryX=0.954;entryY=0.751;entryDx=0;entryDy=0;entryPerimeter=0;endArrow=none;endFill=0;fillColor=#f8cecc;strokeColor=#b85450;" edge="1" parent="1" source="V_W_gdtTsNlJ6WVqg025-5" target="V_W_gdtTsNlJ6WVqg025-11">
          <mxGeometry relative="1" as="geometry" />
        </mxCell>
        <mxCell id="emysILsUEipTc8zqBl5s-40" style="edgeStyle=orthogonalEdgeStyle;rounded=0;orthogonalLoop=1;jettySize=auto;html=1;exitX=0.5;exitY=0.5;exitDx=0;exitDy=0;exitPerimeter=0;endArrow=none;endFill=0;fillColor=#f8cecc;strokeColor=#b85450;" edge="1" parent="1" source="V_W_gdtTsNlJ6WVqg025-5" target="V_W_gdtTsNlJ6WVqg025-30">
          <mxGeometry relative="1" as="geometry">
            <Array as="points">
              <mxPoint x="755" y="270" />
            </Array>
          </mxGeometry>
        </mxCell>
        <mxCell id="emysILsUEipTc8zqBl5s-42" style="edgeStyle=orthogonalEdgeStyle;rounded=0;orthogonalLoop=1;jettySize=auto;html=1;exitX=0.5;exitY=0.5;exitDx=0;exitDy=0;exitPerimeter=0;entryX=0.996;entryY=0.607;entryDx=0;entryDy=0;entryPerimeter=0;endArrow=none;endFill=0;strokeWidth=1;fillColor=#f8cecc;strokeColor=#b85450;" edge="1" parent="1" source="V_W_gdtTsNlJ6WVqg025-5" target="V_W_gdtTsNlJ6WVqg025-20">
          <mxGeometry relative="1" as="geometry">
            <Array as="points">
              <mxPoint x="755" y="369" />
            </Array>
          </mxGeometry>
        </mxCell>
        <mxCell id="emysILsUEipTc8zqBl5s-45" style="edgeStyle=orthogonalEdgeStyle;rounded=0;orthogonalLoop=1;jettySize=auto;html=1;exitX=0.5;exitY=0.5;exitDx=0;exitDy=0;exitPerimeter=0;entryX=1.022;entryY=0.643;entryDx=0;entryDy=0;fontSize=14;endArrow=none;endFill=0;strokeWidth=1;entryPerimeter=0;fillColor=#f8cecc;strokeColor=#b85450;" edge="1" parent="1" source="V_W_gdtTsNlJ6WVqg025-5" target="V_W_gdtTsNlJ6WVqg025-21">
          <mxGeometry relative="1" as="geometry">
            <Array as="points">
              <mxPoint x="755" y="460" />
              <mxPoint x="456" y="460" />
              <mxPoint x="456" y="461" />
            </Array>
          </mxGeometry>
        </mxCell>
        <mxCell id="emysILsUEipTc8zqBl5s-49" style="edgeStyle=orthogonalEdgeStyle;rounded=0;orthogonalLoop=1;jettySize=auto;html=1;exitX=0.5;exitY=0.5;exitDx=0;exitDy=0;exitPerimeter=0;entryX=0.996;entryY=0.596;entryDx=0;entryDy=0;entryPerimeter=0;fontSize=14;endArrow=none;endFill=0;strokeWidth=1;fillColor=#f8cecc;strokeColor=#b85450;" edge="1" parent="1" source="V_W_gdtTsNlJ6WVqg025-5" target="V_W_gdtTsNlJ6WVqg025-26">
          <mxGeometry relative="1" as="geometry">
            <Array as="points">
              <mxPoint x="755" y="578" />
            </Array>
          </mxGeometry>
        </mxCell>
        <mxCell id="emysILsUEipTc8zqBl5s-53" style="edgeStyle=orthogonalEdgeStyle;rounded=0;orthogonalLoop=1;jettySize=auto;html=1;exitX=0.5;exitY=0.5;exitDx=0;exitDy=0;exitPerimeter=0;entryX=1;entryY=0.5;entryDx=0;entryDy=0;fontSize=14;endArrow=none;endFill=0;strokeWidth=1;fillColor=#f8cecc;strokeColor=#b85450;" edge="1" parent="1" source="V_W_gdtTsNlJ6WVqg025-5" target="V_W_gdtTsNlJ6WVqg025-27">
          <mxGeometry relative="1" as="geometry">
            <Array as="points">
              <mxPoint x="755" y="680" />
            </Array>
          </mxGeometry>
        </mxCell>
        <mxCell id="V_W_gdtTsNlJ6WVqg025-5" value="Сервис" style="shape=umlActor;verticalLabelPosition=bottom;verticalAlign=top;html=1;outlineConnect=0;fillColor=#f8cecc;strokeColor=#b85450;fontSize=14;" parent="1" vertex="1">
          <mxGeometry x="740" y="170" width="30" height="60" as="geometry" />
        </mxCell>
        <mxCell id="emysILsUEipTc8zqBl5s-38" style="edgeStyle=orthogonalEdgeStyle;rounded=0;orthogonalLoop=1;jettySize=auto;html=1;exitX=0.5;exitY=0.5;exitDx=0;exitDy=0;exitPerimeter=0;entryX=1.008;entryY=0.634;entryDx=0;entryDy=0;entryPerimeter=0;endArrow=none;endFill=0;fillColor=#dae8fc;strokeColor=#6c8ebf;" edge="1" parent="1" source="V_W_gdtTsNlJ6WVqg025-6" target="V_W_gdtTsNlJ6WVqg025-27">
          <mxGeometry relative="1" as="geometry">
            <Array as="points">
              <mxPoint x="540" y="730" />
              <mxPoint x="540" y="691" />
            </Array>
          </mxGeometry>
        </mxCell>
        <mxCell id="V_W_gdtTsNlJ6WVqg025-6" value="НСПК" style="shape=umlActor;verticalLabelPosition=bottom;verticalAlign=top;html=1;outlineConnect=0;fillColor=#dae8fc;strokeColor=#6c8ebf;fontSize=14;" parent="1" vertex="1">
          <mxGeometry x="590" y="700" width="30" height="60" as="geometry" />
        </mxCell>
        <mxCell id="V_W_gdtTsNlJ6WVqg025-7" value="Регистрация" style="ellipse;whiteSpace=wrap;html=1;fillColor=#d5e8d4;strokeColor=#82b366;" parent="1" vertex="1">
          <mxGeometry x="370" y="-60" width="120" height="80" as="geometry" />
        </mxCell>
        <mxCell id="V_W_gdtTsNlJ6WVqg025-11" value="Создание аватара" style="ellipse;whiteSpace=wrap;html=1;fillColor=#d5e8d4;strokeColor=#82b366;" parent="1" vertex="1">
          <mxGeometry x="360" y="140" width="120" height="80" as="geometry" />
        </mxCell>
        <mxCell id="V_W_gdtTsNlJ6WVqg025-15" value="" style="endArrow=classic;html=1;rounded=0;" parent="1" edge="1">
          <mxGeometry width="50" height="50" relative="1" as="geometry">
            <mxPoint x="390" y="300" as="sourcePoint" />
            <mxPoint x="440" y="250" as="targetPoint" />
          </mxGeometry>
        </mxCell>
        <mxCell id="V_W_gdtTsNlJ6WVqg025-20" value="Поиск по параметрам" style="ellipse;whiteSpace=wrap;html=1;fillColor=#d5e8d4;strokeColor=#82b366;" parent="1" vertex="1">
          <mxGeometry x="354" y="320" width="120" height="80" as="geometry" />
        </mxCell>
        <mxCell id="V_W_gdtTsNlJ6WVqg025-21" value="Рекомендательная система" style="ellipse;whiteSpace=wrap;html=1;fillColor=#d5e8d4;strokeColor=#82b366;" parent="1" vertex="1">
          <mxGeometry x="354" y="410" width="120" height="80" as="geometry" />
        </mxCell>
        <mxCell id="V_W_gdtTsNlJ6WVqg025-26" value="Виртуальная примерка" style="ellipse;whiteSpace=wrap;html=1;fillColor=#d5e8d4;strokeColor=#82b366;" parent="1" vertex="1">
          <mxGeometry x="354" y="530" width="120" height="80" as="geometry" />
        </mxCell>
        <mxCell id="V_W_gdtTsNlJ6WVqg025-27" value="Покупка" style="ellipse;whiteSpace=wrap;html=1;fillColor=#d5e8d4;strokeColor=#82b366;" parent="1" vertex="1">
          <mxGeometry x="360" y="640" width="120" height="80" as="geometry" />
        </mxCell>
        <mxCell id="V_W_gdtTsNlJ6WVqg025-30" value="Параметризация комнаты" style="ellipse;whiteSpace=wrap;html=1;fillColor=#d5e8d4;strokeColor=#82b366;" parent="1" vertex="1">
          <mxGeometry x="354" y="230" width="120" height="80" as="geometry" />
        </mxCell>
        <mxCell id="V_W_gdtTsNlJ6WVqg025-37" value="Заполнение каталога" style="ellipse;whiteSpace=wrap;html=1;fillColor=#d5e8d4;strokeColor=#82b366;" parent="1" vertex="1">
          <mxGeometry x="340" y="40" width="120" height="80" as="geometry" />
        </mxCell>
      </root>
    </mxGraphModel>
  </diagram>
</mxfile>
